<svg width="10" height="16" viewBox="0 0 10 16" fill="none" xmlns="http://www.w3.org/2000/svg">
<path d="M1.10885 15.0106C1.49226 15.394 2.1104 15.394 2.49381 15.0106L8.99607 8.50832C9.06861 8.43594 9.12616 8.34995 9.16542 8.25529C9.20469 8.16064 9.2249 8.05917 9.2249 7.95669C9.2249 7.85421 9.20469 7.75274 9.16542 7.65808C9.12616 7.56342 9.06861 7.47744 8.99607 7.40505L2.49381 0.902789C2.1104 0.519383 1.49226 0.519383 1.10885 0.902789C0.725447 1.2862 0.725447 1.90434 1.10885 2.28775L6.77388 7.9606L1.10103 13.6335C0.725446 14.009 0.725447 14.635 1.10885 15.0106Z" fill="#007C89"/>
</svg>
