<svg width="24" height="25" viewBox="0 0 24 25" fill="none" xmlns="http://www.w3.org/2000/svg">
<path d="M23.7449 12.5786C23.7449 11.7886 23.6749 11.0386 23.5549 10.3086H12.2549V14.8186H18.7249C18.4349 16.2986 17.5849 17.5486 16.3249 18.3986V21.3986H20.1849C22.4449 19.3086 23.7449 16.2286 23.7449 12.5786Z" fill="#4285F4"/>
<path d="M12.2549 24.3077C15.4949 24.3077 18.2049 23.2277 20.1849 21.3977L16.3249 18.3977C15.2449 19.1177 13.8749 19.5577 12.2549 19.5577C9.12492 19.5577 6.47492 17.4477 5.52492 14.5977H1.54492V17.6877C3.51492 21.6077 7.56492 24.3077 12.2549 24.3077Z" fill="#34A853"/>
<path d="M5.52488 14.5977C5.27488 13.8777 5.14488 13.1077 5.14488 12.3077C5.14488 11.5077 5.28488 10.7377 5.52488 10.0177V6.92773H1.54488C0.724882 8.54773 0.254883 10.3677 0.254883 12.3077C0.254883 14.2477 0.724882 16.0677 1.54488 17.6877L5.52488 14.5977Z" fill="#FBBC05"/>
<path d="M12.2549 5.05859C14.0249 5.05859 15.6049 5.6686 16.8549 6.8586L20.2749 3.43859C18.2049 1.49859 15.4949 0.308594 12.2549 0.308594C7.56492 0.308594 3.51492 3.0086 1.54492 6.9286L5.52492 10.0186C6.47492 7.1686 9.12492 5.05859 12.2549 5.05859Z" fill="#EA4335"/>
</svg>
