<svg width="19" height="18" viewBox="0 0 19 18" fill="none" xmlns="http://www.w3.org/2000/svg">
<path d="M1.60742 2.31836H5.2168V0.943359C5.2168 0.848828 5.29414 0.771484 5.38867 0.771484H6.5918C6.68633 0.771484 6.76367 0.848828 6.76367 0.943359V2.31836H12.2637V0.943359C12.2637 0.848828 12.341 0.771484 12.4355 0.771484H13.6387C13.7332 0.771484 13.8105 0.848828 13.8105 0.943359V2.31836H17.4199C17.8002 2.31836 18.1074 2.62559 18.1074 3.00586V17.2715C18.1074 17.6518 17.8002 17.959 17.4199 17.959H1.60742C1.22715 17.959 0.919922 17.6518 0.919922 17.2715V3.00586C0.919922 2.62559 1.22715 2.31836 1.60742 2.31836ZM2.4668 16.4121H16.5605V8.24805H2.4668V16.4121ZM16.5605 6.78711V3.86523H13.8105V4.89648C13.8105 4.99102 13.7332 5.06836 13.6387 5.06836H12.4355C12.341 5.06836 12.2637 4.99102 12.2637 4.89648V3.86523H6.76367V4.89648C6.76367 4.99102 6.68633 5.06836 6.5918 5.06836H5.38867C5.29414 5.06836 5.2168 4.99102 5.2168 4.89648V3.86523H2.4668V6.78711H16.5605Z" fill="#007C89"/>
</svg>
