<svg width="9" height="15" viewBox="0 0 9 15" fill="none" xmlns="http://www.w3.org/2000/svg">
<path d="M0.568814 14.4188C0.952221 14.8022 1.57037 14.8022 1.95377 14.4188L8.45603 7.91653C8.52857 7.84414 8.58612 7.75815 8.62539 7.6635C8.66465 7.56884 8.68486 7.46737 8.68486 7.36489C8.68486 7.26241 8.66465 7.16094 8.62539 7.06628C8.58612 6.97163 8.52857 6.88564 8.45603 6.81325L1.95377 0.310992C1.57037 -0.0724141 0.952221 -0.0724141 0.568814 0.310992C0.185408 0.694399 0.185408 1.31254 0.568814 1.69595L6.23384 7.3688L0.560989 13.0417C0.185407 13.4172 0.185408 14.0432 0.568814 14.4188Z" fill="#B3B3B3"/>
</svg>
