<svg width="11" height="11" viewBox="0 0 11 11" fill="none" xmlns="http://www.w3.org/2000/svg">
<path d="M2.98227 0.439234C0.0562734 0.439234 0.0562734 4.69523 2.98227 4.69523C5.92227 4.69523 5.92227 0.439234 2.98227 0.439234ZM7.98027 0.537234L1.63827 10.3652H3.03827L9.36627 0.537234H7.98027ZM2.96827 1.47523C4.43827 1.47523 4.45227 3.64523 2.99627 3.64523C1.51227 3.64523 1.49827 1.47523 2.96827 1.47523ZM7.98027 6.20723C5.05427 6.20723 5.05427 10.4632 7.98027 10.4632C10.9203 10.4632 10.9203 6.20723 7.98027 6.20723ZM7.96627 7.24323C9.43627 7.24323 9.45027 9.41323 7.99427 9.41323C6.51027 9.41323 6.49627 7.24323 7.96627 7.24323Z" fill="#B3B3B3"/>
</svg>
