<svg width="138" height="110" viewBox="0 0 138 110" fill="none" xmlns="http://www.w3.org/2000/svg">
<path d="M135.038 71.8037C141.927 53.0198 136.632 29.9418 120.898 17.0946C115.977 13.0703 110.354 9.97292 104.508 7.49734C97.8414 4.66979 90.8589 2.59312 83.7359 1.33773C69.8764 -1.10264 55.4194 -0.304829 42.1691 4.5642C27.1849 10.0785 14.3798 21.1658 6.79988 35.2449C-9.6136 65.7614 4.72623 100.021 38.631 107.541C67.791 114.018 111.197 108.421 129.684 82.0931C131.934 78.8901 133.714 75.429 135.038 71.8037Z" fill="#E5F2F2"/>
<g clip-path="url(#clip0_853_5697)">
<path d="M109.613 88.3591C109.543 88.3591 109.46 88.3823 109.39 88.3939C109.166 88.3939 108.943 88.3591 108.72 88.3939C107.285 88.5562 105.851 88.7534 104.416 88.881C103.228 88.9853 102.029 89.0085 100.842 89.0897C99.7598 89.1593 98.6898 89.2405 97.6081 89.3217C96.6086 89.3913 95.5974 89.4609 94.598 89.5189C94.1041 89.542 93.6103 89.5536 93.1164 89.5536C92.1875 89.5536 91.2586 89.5536 90.3297 89.5652C89.589 89.5652 88.8482 89.5652 88.1074 89.5884C87.1785 89.5884 86.2496 89.6 85.3207 89.6116C84.3566 89.6232 83.3806 89.6464 82.4165 89.658C81.2642 89.6812 80.1001 89.7044 78.9478 89.7392C78.5363 89.7392 78.113 89.774 77.7014 89.8088C77.1135 89.8436 76.5256 89.89 75.9377 89.9248C75.0441 89.9828 74.1622 90.0292 73.2686 90.0987C72.469 90.1567 71.6812 90.2495 70.8817 90.3191C69.8234 90.4119 68.7652 90.4815 67.707 90.5627C66.8721 90.6323 66.0491 90.725 65.2142 90.7946C65.1437 90.7946 65.0614 90.7946 64.9908 90.7946C64.3676 90.8178 63.7445 90.8526 63.1213 90.8758C62.5686 90.899 62.0278 90.9338 61.4751 90.9338C60.6638 90.9338 59.8407 90.9106 59.0294 90.9106C57.6067 90.9106 56.1839 90.9222 54.7612 90.9106C53.456 90.9106 52.1391 90.8642 50.834 90.841C48.8821 90.7946 46.9185 90.7598 44.9666 90.6786C43.4145 90.6207 41.8507 90.4931 40.2986 90.4119C37.9705 90.2959 35.6306 90.1799 33.2907 90.0872C32.4559 90.0524 31.6211 90.0408 30.7862 90.0872C29.9867 90.1335 29.1989 90.1451 28.4111 89.948C27.8937 89.8204 27.7761 89.7276 27.7291 89.1941C27.6586 88.3591 27.6468 87.5124 27.6115 86.6774C27.5527 85.5524 27.4939 84.439 27.4351 83.314C27.3999 82.7341 27.3764 82.1542 27.3528 81.5743C27.3293 80.7856 27.3176 79.9969 27.2823 79.2199C27.2353 78.3036 27.1412 77.3874 27.1059 76.4712C27.0589 74.975 27.0354 73.4789 27.0001 71.9828C26.9883 71.5189 26.9531 71.0433 26.9295 70.5794C26.906 69.9995 26.8708 69.4196 26.859 68.8397C26.8355 67.8655 26.859 66.8913 26.8002 65.917C26.7414 64.792 26.6238 63.6786 26.5415 62.5536C26.471 61.5794 26.4122 60.6168 26.3534 59.6426C26.3299 59.2134 26.3181 58.7843 26.2946 58.3552C26.2711 57.7405 26.2476 57.1258 26.2241 56.5111C26.1888 55.6181 26.1417 54.7134 26.1182 53.8204C26.083 52.7766 26.0712 51.7212 26.0477 50.6774C26.0477 50.2134 26.0006 49.7379 26.0242 49.274C26.0594 48.207 26.13 47.14 26.1653 46.073C26.2476 44.0085 26.3299 41.9557 26.4004 39.8913C26.4357 38.6967 26.4945 37.4905 26.3534 36.2959C26.3181 35.9828 26.3299 35.658 26.3534 35.3449C26.3534 35.2289 26.4357 35.1129 26.4827 35.0201C26.8355 34.9969 27.1294 34.9738 27.4351 34.9506C28.8579 34.7998 30.2454 34.475 31.6799 34.4402C32.5735 34.4171 33.4553 34.2779 34.349 34.1851C34.4078 34.1851 34.4665 34.1851 34.5253 34.1735C35.4542 34.1039 36.3831 34.0459 37.3003 33.9879C37.8529 33.9531 38.3938 33.9067 38.9464 33.8951C40.7689 33.8719 42.5915 33.8719 44.414 33.8603C45.6133 33.8603 46.8009 33.8835 48.0002 33.8719C49.3054 33.8719 50.6223 33.8372 51.9275 33.8024C52.7623 33.7792 53.5971 33.6864 54.432 33.7212C56.0664 33.7792 57.689 33.6864 59.3234 33.6516C60.3463 33.6284 61.3693 33.6284 62.3923 33.6168C63.9326 33.6052 65.4612 33.582 67.0015 33.5588C67.7658 33.5588 68.5183 33.524 69.2708 33.524C70.5995 33.524 71.9282 33.582 73.2568 33.5588C74.2563 33.5356 75.2675 33.408 76.2669 33.3732C77.384 33.3268 78.501 33.3268 79.618 33.3152C80.5234 33.3036 81.4405 33.3036 82.3459 33.2805C83.4277 33.2573 84.5094 33.2109 85.5912 33.2109C86.8846 33.2109 88.1662 33.2689 89.4596 33.2921C89.9182 33.2921 90.365 33.2457 90.8236 33.2341C91.435 33.2109 92.0347 33.1877 92.6461 33.1645C93.5044 33.1297 94.351 33.0717 95.2094 33.0601C96.5028 33.0369 97.7844 33.0485 99.0778 33.0253C100.101 33.0137 101.124 32.9789 102.147 32.9673C103.299 32.9673 104.463 33.0137 105.615 32.9789C107.085 32.9325 108.543 32.9905 110.001 33.1065C110.178 33.1181 110.354 33.1645 110.542 33.1877C110.542 33.3964 110.542 33.5472 110.542 33.698C110.613 34.4402 110.695 35.1941 110.742 35.9364C110.789 36.5743 110.801 37.2006 110.824 37.8384C110.848 38.4763 110.824 39.1142 110.86 39.7521C110.895 40.6335 110.977 41.5034 110.989 42.3848C111.024 43.9737 111.024 45.5627 111.024 47.1516C111.024 48.5201 111.012 49.8887 110.989 51.2457C110.977 52.1967 110.93 53.1593 110.907 54.1103C110.871 55.5949 110.836 57.0678 110.813 58.5524C110.789 59.8281 110.765 61.1039 110.754 62.3681C110.742 63.7366 110.742 65.1052 110.742 66.4622C110.742 67.7147 110.742 68.9673 110.765 70.2199C110.765 71.1709 110.801 72.1335 110.801 73.0846C110.801 74.3951 110.765 75.7057 110.754 77.0163C110.742 78.3964 110.73 79.7882 110.707 81.1683C110.695 82.2122 110.683 83.2676 110.66 84.3114C110.636 85.2044 110.601 86.1091 110.566 87.0021C110.542 87.4892 110.319 87.8603 109.919 88.1271C109.825 88.1851 109.743 88.2663 109.648 88.3243L109.613 88.3591Z" fill="#FF9595"/>
<path d="M110.307 31.8534C110.013 31.8534 109.801 31.8766 109.601 31.8766C108.602 31.8302 107.59 31.749 106.591 31.7374C105.356 31.7258 104.122 31.7722 102.899 31.7838C102.041 31.7838 101.194 31.7722 100.336 31.7838C99.7713 31.7838 99.1951 31.8302 98.6307 31.8418C97.6665 31.865 96.7024 31.865 95.7264 31.8766C94.9151 31.8882 94.0921 31.8998 93.2807 31.923C92.1637 31.9694 91.0467 32.0506 89.9296 32.0622C88.6245 32.0738 87.3076 32.0158 86.0024 32.0158C85.003 32.0158 83.9918 32.0274 82.9923 32.039C81.7224 32.0506 80.4525 32.0622 79.1827 32.0854C77.9363 32.1086 76.6782 32.0854 75.4318 32.2129C73.7974 32.3753 72.1395 32.4217 70.4934 32.3405C69.5645 32.2941 68.6356 32.2941 67.7067 32.3289C65.5432 32.3985 63.3914 32.4797 61.2279 32.3869C60.3931 32.3521 59.5582 32.4565 58.7234 32.4797C57.7004 32.5145 56.6775 32.5377 55.6545 32.5493C54.608 32.5609 53.5733 32.5493 52.5268 32.5841C50.669 32.6421 48.8112 32.7581 46.9534 32.6421C45.954 32.5841 44.9428 32.6653 43.9433 32.6769C42.7087 32.6885 41.4741 32.7001 40.2513 32.7117C39.4987 32.7117 38.7345 32.7117 37.9819 32.7581C36.7121 32.8392 35.4539 33.0132 34.184 33.0596C31.8442 33.1408 29.5396 33.5351 27.2232 33.8483C26.988 33.8831 26.7529 33.8715 26.4824 33.8831C26.4824 33.6859 26.4824 33.5583 26.4824 33.4307C26.5295 32.4913 26.6235 31.5635 26.6118 30.624C26.6 29.7426 26.7529 28.9075 26.9527 28.0725C27.0586 27.597 27.1879 27.1215 27.2467 26.6343C27.329 25.9153 27.7405 25.5209 28.4225 25.3702C29.1986 25.2078 29.9746 25.0106 30.7742 24.9178C31.8089 24.7903 32.8554 24.7671 33.8901 24.6627C34.6073 24.5931 35.3246 24.4423 36.0418 24.3727C36.9707 24.28 37.8996 24.2336 38.8168 24.1756C38.9344 24.1756 39.0402 24.1524 39.1578 24.1408C40.1219 24.0712 41.0861 24.0132 42.0503 23.9436C42.7322 23.8972 43.4142 23.8276 44.0962 23.7812C45.0016 23.7117 45.907 23.6537 46.8241 23.5957C47.3297 23.5609 47.8471 23.5493 48.3527 23.5029C49.4462 23.3985 50.5397 23.2593 51.6332 23.155C52.1623 23.1086 52.6914 23.0854 53.2206 23.0506C54.0554 23.0042 54.8902 22.9346 55.7133 22.8998C56.5599 22.865 57.4182 22.8534 58.2648 22.865C59.4994 22.865 60.734 22.865 61.9687 22.9114C63.944 22.981 65.9194 23.0854 67.883 23.1434C69.5762 23.2014 71.2576 23.2245 72.9508 23.2477C74.1854 23.2709 75.42 23.2709 76.6429 23.2477C77.4424 23.2477 78.2302 23.1898 79.0298 23.155C79.9234 23.1318 80.8053 23.1202 81.6989 23.0854C82.569 23.0506 83.4391 22.9926 84.3092 22.9578C85.4027 22.923 86.508 22.8882 87.6015 22.865C88.3776 22.8418 89.1536 22.8302 89.9296 22.8302C90.9526 22.8186 91.9756 22.8186 92.9985 22.7954C93.7746 22.7838 94.5506 22.749 95.3267 22.7258C96.9611 22.691 98.5837 22.6562 100.218 22.6562C101.982 22.6562 103.746 22.7026 105.509 22.7374C106.179 22.749 106.838 22.7374 107.496 22.8186C108.026 22.8882 108.543 23.039 109.037 23.213C109.354 23.3173 109.566 23.5841 109.613 23.932C109.672 24.3727 109.695 24.8251 109.742 25.2774C109.766 25.4861 109.766 25.6949 109.801 25.8921C109.989 27.0403 110.071 28.2001 110.095 29.3599C110.095 29.7194 110.201 30.0673 110.236 30.4269C110.271 30.8676 110.283 31.3199 110.307 31.8534Z" fill="#FFD2CE"/>
<path d="M47.3886 75.7743C51.4922 75.7047 55.5605 75.5076 59.6877 75.4844C59.8405 76.8529 59.77 78.1751 59.817 79.4857C59.864 80.8078 59.8052 82.13 59.7935 83.4754C59.6524 83.5217 59.5348 83.6029 59.4055 83.6029C58.6647 83.6377 57.9239 83.6493 57.1949 83.6725C56.3954 83.6957 55.6076 83.6957 54.808 83.7189C53.785 83.7537 52.7621 83.7769 51.7391 83.8349C50.7397 83.8813 49.7402 83.9625 48.729 84.0205C48.3763 84.0437 48.0118 84.0205 47.6708 84.0205C47.318 83.255 47.1064 77.0269 47.3886 75.7627V75.7743Z" fill="white"/>
<path d="M32.196 76.4015C36.3937 76.2276 40.5796 75.9956 44.7891 75.9492C44.8243 78.6747 44.8714 81.3539 44.9066 84.091C44.695 84.1258 44.5304 84.1722 44.3658 84.1606C42.2023 84.1374 40.0388 84.1258 37.8752 84.091C36.429 84.0678 34.9945 84.0098 33.5482 83.975C33.4306 83.975 33.3248 83.975 33.2072 83.975C32.4077 84.0214 32.0197 83.6271 32.0549 82.8152C32.0785 82.2701 32.1255 81.725 32.1372 81.1915C32.149 80.1825 32.1372 79.1734 32.1372 78.1644C32.1372 77.6773 32.102 77.1902 32.102 76.7031C32.102 76.5987 32.1608 76.4943 32.196 76.3899V76.4015Z" fill="white"/>
<path d="M74.7254 75.5656C74.7606 75.8323 74.8194 76.0063 74.8077 76.1687C74.7724 78.465 74.7254 80.7614 74.6783 83.1042C74.3609 83.1506 74.0904 83.2202 73.8082 83.2202C72.6677 83.255 71.5389 83.2666 70.3983 83.2782C69.6929 83.2782 68.9991 83.2782 68.2936 83.2782C67.4823 83.2898 66.6592 83.3362 65.8479 83.3594C64.9778 83.3826 64.1077 83.4058 63.2376 83.429C62.9437 83.429 62.6379 83.4522 62.2852 83.4638C62.2852 80.8194 62.2852 78.2215 62.2734 75.5772C62.5204 75.5424 62.7202 75.4844 62.9201 75.4844C64.2606 75.496 65.6128 75.5308 66.9532 75.5424C69.2108 75.5656 71.4683 75.5656 73.7142 75.5772C74.0316 75.5772 74.3491 75.554 74.7254 75.5424V75.5656Z" fill="white"/>
<path d="M77.3254 83.1169C77.0314 82.653 77.1725 82.1891 77.1725 81.7484C77.1725 79.9391 77.2313 78.1298 77.2666 76.3089C77.2666 76.0886 77.3019 75.8682 77.3136 75.6131C77.4077 75.5783 77.5135 75.5087 77.6193 75.5087C78.4542 75.4855 79.289 75.4739 80.1121 75.4507C80.8176 75.4391 81.5113 75.4043 82.2168 75.4043C83.0163 75.4043 83.8041 75.4391 84.6037 75.4507C85.7913 75.4507 86.9906 75.4507 88.1782 75.4623C88.5545 75.4623 88.9307 75.4739 89.3775 75.4855C89.4363 77.921 89.401 80.3218 89.2364 82.7922C88.9895 82.827 88.7661 82.8966 88.5309 82.9082C87.6373 82.943 86.7555 82.9662 85.8618 82.9777C85.2739 82.9777 84.686 82.9777 84.0981 82.9777C83.2868 82.9777 82.4755 83.0125 81.6524 83.0241C80.8411 83.0357 80.0298 83.0473 79.2067 83.0705C78.7364 83.0705 78.2543 83.1053 77.7839 83.1285C77.6193 83.1285 77.4547 83.1285 77.3136 83.1285L77.3254 83.1169Z" fill="white"/>
<path d="M62.2264 64.3509C62.6262 64.1074 63.0848 64.2581 63.5081 64.2465C64.4722 64.2233 65.4364 64.2465 66.4006 64.2465C67.5764 64.2465 68.7522 64.2813 69.928 64.2813C70.9275 64.2813 71.9387 64.2349 72.9381 64.2233C73.5378 64.2233 74.1375 64.2233 74.7607 64.2233C74.7607 66.5429 74.7489 68.8045 74.7371 71.1125C74.502 71.1589 74.2786 71.2285 74.0669 71.2285C72.7382 71.2517 71.4213 71.2749 70.0926 71.2749C68.5053 71.2749 66.9062 71.2633 65.3188 71.2401C64.4252 71.2285 63.5433 71.1937 62.6497 71.1589C62.5439 71.1589 62.4381 71.1009 62.344 71.0661C62.1559 70.4514 62.0618 64.9772 62.2382 64.3509H62.2264Z" fill="white"/>
<path d="M89.5419 63.5155C89.7065 66.2874 89.683 69.8712 89.5066 70.4279C89.4595 70.4511 89.4125 70.4975 89.3655 70.4975C88.0956 70.5787 86.8375 70.6598 85.5676 70.7294C84.4153 70.7874 83.263 70.8338 82.0989 70.8802C80.8526 70.9266 79.5944 70.9498 78.3481 70.9846C78.1952 70.9846 78.0423 71.031 77.8895 71.031C77.6896 71.031 77.4897 70.9962 77.3133 70.973C77.1722 68.7578 77.1134 66.6122 77.1605 64.4665C77.1605 64.3622 77.2075 64.2462 77.231 64.107C77.3721 64.0722 77.5132 64.0258 77.6543 64.0142C78.4656 63.9678 79.277 63.9098 80.0883 63.8866C80.9349 63.8518 81.7932 63.8518 82.6398 63.8171C83.1336 63.8055 83.6275 63.7707 84.1213 63.7475C85.2736 63.6895 86.4259 63.6431 87.5782 63.5851C88.0721 63.5619 88.5659 63.5271 89.0598 63.5039C89.2009 63.5039 89.3537 63.5155 89.5183 63.5271L89.5419 63.5155Z" fill="white"/>
<path d="M32.0902 72.1561C32.0431 71.9589 31.9961 71.8081 31.9961 71.669C32.0196 69.5813 32.0431 67.4937 32.0666 65.3481C32.3253 65.3133 32.5487 65.2553 32.7721 65.2553C33.607 65.2321 34.4418 65.2321 35.2649 65.2089C36.0409 65.1857 36.817 65.1393 37.593 65.1161C38.8394 65.0813 40.0857 65.0581 41.3439 65.0117C41.9553 64.9885 42.555 64.919 43.1546 64.8842C43.6014 64.861 44.06 64.8494 44.5656 64.8262C44.6126 65.0233 44.6714 65.1973 44.6714 65.3713C44.6949 66.1019 44.6832 66.8326 44.6949 67.5517C44.7067 68.2824 44.7302 69.013 44.742 69.7321C44.742 70.2888 44.7537 70.8455 44.7655 71.3674C44.6597 71.437 44.6126 71.4834 44.5656 71.4834C43.6014 71.5298 42.6373 71.5646 41.6731 71.5994C41.2028 71.6226 40.7207 71.6342 40.2503 71.669C39.0628 71.7501 37.8752 71.8661 36.6759 71.9357C35.8057 71.9821 34.9356 71.9705 34.0655 72.0053C33.7481 72.0169 33.4306 72.0981 33.1014 72.1213C32.7721 72.1445 32.4311 72.1213 32.0784 72.1329L32.0902 72.1561Z" fill="white"/>
<path d="M59.8042 64.3154C59.7689 66.6002 59.7337 68.769 59.6866 70.9958C59.5102 71.0306 59.3339 71.1002 59.1575 71.1002C58.2168 71.1234 57.2644 71.1118 56.3238 71.135C55.7947 71.135 55.2655 71.1698 54.7364 71.1814C54.0544 71.193 53.3725 71.2046 52.6905 71.2162C52.1261 71.2278 51.5617 71.251 50.9856 71.2626C50.2448 71.2858 49.504 71.2974 48.775 71.3206C48.5281 71.3206 48.2812 71.3438 48.0342 71.3438C47.8108 71.3438 47.5874 71.3438 47.3288 71.3438C47.1054 70.2072 47.2464 69.1054 47.1877 68.0151C47.1289 66.9249 47.1524 65.8231 47.1406 64.6749C48.2459 64.6285 49.3041 64.5822 50.3506 64.5358C51.3853 64.4894 52.4318 64.4546 53.4665 64.4314C54.5248 64.3966 55.583 64.3502 56.6412 64.3618C57.676 64.3734 58.6989 64.2342 59.7924 64.327L59.8042 64.3154Z" fill="white"/>
<path d="M103.946 75.4613C103.957 75.6933 103.969 75.8441 103.981 75.9832C104.004 77.0502 104.04 78.1172 104.028 79.1843C104.028 79.8221 103.981 80.46 103.887 81.0863C103.769 81.7938 103.346 82.1765 102.617 82.2577C101.547 82.3737 100.465 82.4433 99.3834 82.5245C98.7602 82.5709 98.137 82.6404 97.5138 82.6636C96.4203 82.71 95.315 82.7332 94.2215 82.7564C93.7277 82.7564 93.2456 82.7564 92.7047 82.7564C92.5166 81.933 92.5989 81.1327 92.5401 80.3441C92.4813 79.5438 92.4813 78.7319 92.3872 77.9317C92.2932 77.1314 92.2461 76.3428 92.2344 75.4845C92.4695 75.4381 92.6694 75.3685 92.8693 75.3569C93.5513 75.3337 94.2333 75.3221 94.9152 75.3105C95.3738 75.3105 95.8206 75.3105 96.2792 75.3105C97.0788 75.3105 97.8665 75.3337 98.6661 75.3569C100.03 75.3801 101.394 75.3917 102.758 75.4265C103.134 75.4265 103.51 75.4613 103.957 75.4729L103.946 75.4613Z" fill="white"/>
<path d="M47.3886 41.6767C51.4922 41.6071 55.5605 41.4099 59.6877 41.3867C59.8405 42.7553 59.77 44.0774 59.817 45.388C59.864 46.7102 59.8052 48.0323 59.7935 49.3777C59.6524 49.4241 59.5348 49.5053 59.4055 49.5053C58.6647 49.5401 57.9239 49.5517 57.1949 49.5749C56.3954 49.5981 55.6076 49.5981 54.808 49.6213C53.785 49.656 52.7621 49.6792 51.7391 49.7372C50.7397 49.7836 49.7402 49.8648 48.729 49.9228C48.3763 49.946 48.0118 49.9228 47.6708 49.9228C47.318 49.1573 47.1064 42.9292 47.3886 41.6651V41.6767Z" fill="white"/>
<path d="M32.196 42.3039C36.3937 42.1299 40.5796 41.898 44.7891 41.8516C44.8243 44.5771 44.8714 47.2562 44.9066 49.9933C44.695 50.0281 44.5304 50.0745 44.3658 50.0629C42.2023 50.0397 40.0388 50.0281 37.8752 49.9933C36.429 49.9701 34.9945 49.9121 33.5482 49.8773C33.4306 49.8773 33.3248 49.8773 33.2072 49.8773C32.4077 49.9237 32.0197 49.5294 32.0549 48.7175C32.0785 48.1724 32.1255 47.6273 32.1372 47.0938C32.149 46.0848 32.1372 45.0758 32.1372 44.0668C32.1372 43.5797 32.102 43.0925 32.102 42.6054C32.102 42.501 32.1608 42.3967 32.196 42.2923V42.3039Z" fill="white"/>
<path d="M74.7254 41.4562C74.7606 41.7229 74.8194 41.8969 74.8077 42.0593C74.7724 44.3557 74.7254 46.6521 74.6783 48.9948C74.3609 49.0412 74.0904 49.1108 73.8082 49.1108C72.6677 49.1456 71.5389 49.1572 70.3983 49.1688C69.6929 49.1688 68.9991 49.1688 68.2936 49.1688C67.4823 49.1804 66.6592 49.2268 65.8479 49.25C64.9778 49.2732 64.1077 49.2964 63.2376 49.3196C62.9437 49.3196 62.6379 49.3428 62.2852 49.3544C62.2852 46.7101 62.2852 44.1121 62.2734 41.4678C62.5204 41.433 62.7202 41.375 62.9201 41.375C64.2606 41.3866 65.6128 41.4214 66.9532 41.433C69.2108 41.4562 71.4683 41.4562 73.7142 41.4678C74.0316 41.4678 74.3491 41.4446 74.7254 41.433V41.4562Z" fill="white"/>
<path d="M77.3254 49.0193C77.0314 48.5554 77.1725 48.0914 77.1725 47.6507C77.1725 45.8414 77.2313 44.0322 77.2666 42.2113C77.2666 41.9909 77.3019 41.7706 77.3136 41.5154C77.4077 41.4806 77.5135 41.411 77.6193 41.411C78.4542 41.3878 79.289 41.3762 80.1121 41.353C80.8176 41.3414 81.5113 41.3066 82.2168 41.3066C83.0163 41.3066 83.8041 41.3414 84.6037 41.353C85.7913 41.353 86.9906 41.353 88.1782 41.3646C88.5545 41.3646 88.9307 41.3762 89.3775 41.3878C89.4363 43.8234 89.401 46.2242 89.2364 48.6945C88.9895 48.7293 88.7661 48.7989 88.5309 48.8105C87.6373 48.8453 86.7555 48.8685 85.8618 48.8801C85.2739 48.8801 84.686 48.8801 84.0981 48.8801C83.2868 48.8801 82.4755 48.9149 81.6524 48.9265C80.8411 48.9381 80.0298 48.9497 79.2067 48.9729C78.7364 48.9729 78.2543 49.0077 77.7839 49.0309C77.6193 49.0309 77.4547 49.0309 77.3136 49.0309L77.3254 49.0193Z" fill="white"/>
<path d="M103.946 41.3637C103.957 41.5956 103.969 41.7464 103.981 41.8856C104.004 42.9526 104.04 44.0196 104.028 45.0866C104.028 45.7245 103.981 46.3624 103.887 46.9887C103.769 47.6961 103.346 48.0789 102.617 48.1601C101.547 48.276 100.465 48.3456 99.3834 48.4268C98.7602 48.4732 98.137 48.5428 97.5138 48.566C96.4203 48.6124 95.315 48.6356 94.2215 48.6588C93.7277 48.6588 93.2456 48.6588 92.7047 48.6588C92.5166 47.8353 92.5989 47.0351 92.5401 46.2464C92.4813 45.4461 92.4813 44.6343 92.3872 43.834C92.2932 43.0338 92.2461 42.2451 92.2344 41.3869C92.4695 41.3405 92.6694 41.2709 92.8693 41.2593C93.5513 41.2361 94.2333 41.2245 94.9152 41.2129C95.3738 41.2129 95.8206 41.2129 96.2792 41.2129C97.0788 41.2129 97.8665 41.2361 98.6661 41.2593C100.03 41.2825 101.394 41.2941 102.758 41.3289C103.134 41.3289 103.51 41.3637 103.957 41.3753L103.946 41.3637Z" fill="white"/>
<path d="M44.3069 54.0289C44.3892 56.1745 44.4715 58.2274 44.5538 60.3382C44.2364 60.3846 43.9659 60.4426 43.6837 60.4542C42.99 60.5006 42.2845 60.5122 41.579 60.547C40.8265 60.5817 40.0622 60.6165 39.3097 60.6629C38.7453 60.6977 38.1809 60.7557 37.6048 60.7789C36.1467 60.8485 34.6887 60.9065 33.2307 60.9761C32.8544 60.9993 32.4782 61.0573 32.0666 61.0921C32.0431 60.7441 31.9961 60.431 31.9961 60.1178C31.9961 58.3433 31.9961 56.5689 31.9961 54.7944C31.9961 54.1565 32.3018 53.9361 32.9367 53.9825C34.0185 54.0521 35.0885 54.0985 36.1703 54.1333C37.1697 54.1565 38.1809 54.1449 39.1804 54.1333C40.2268 54.1217 41.2616 54.0753 42.308 54.0521C42.943 54.0405 43.5897 54.0289 44.2599 54.0173L44.3069 54.0289Z" fill="white"/>
<path d="M74.6797 53.531C74.7503 55.6882 74.8208 57.8106 74.7032 59.9214C74.1153 60.165 73.5627 60.0142 73.0218 60.049C72.5162 60.0838 71.9988 60.0838 71.4932 60.0954C70.8465 60.107 70.1998 60.1186 69.5649 60.1186C68.6125 60.1186 67.6718 60.107 66.7194 60.107C65.3319 60.107 63.9562 60.107 62.5688 60.107C62.4982 60.107 62.4277 60.0722 62.3218 60.049C62.3571 57.915 62.0279 55.7926 62.1572 53.589C64.2502 53.4846 66.3196 53.5542 68.4008 53.5194C70.482 53.4846 72.5632 53.5194 74.6915 53.5194L74.6797 53.531Z" fill="white"/>
<path d="M59.6516 60.0022C59.2636 60.3037 58.8756 60.1065 58.5111 60.1297C57.7938 60.1761 57.0766 60.1297 56.3593 60.1297C55.7714 60.1297 55.1835 60.1297 54.5956 60.1297C53.9489 60.1413 53.314 60.1761 52.6673 60.1993C51.8559 60.2225 51.0446 60.2341 50.2215 60.2457C49.469 60.2573 48.7047 60.2921 47.9522 60.3037C47.7053 60.3037 47.4701 60.2805 47.1644 60.2573C47.0351 59.1903 47.1762 58.1465 47.1527 57.1143C47.1291 56.0936 47.0821 55.0614 47.0586 54.0872C47.1174 54.0176 47.1291 54.006 47.1409 53.9828C47.1527 53.9712 47.1644 53.9596 47.1879 53.948C47.2467 53.9248 47.2938 53.9016 47.3525 53.9016C51.4091 53.8205 55.4539 53.7277 59.5811 53.6465C59.6987 54.7135 59.6869 55.7689 59.6869 56.8243C59.6869 57.8797 59.6751 58.9467 59.6634 59.979L59.6516 60.0022Z" fill="white"/>
<path d="M92.1993 70.2887C92.1876 68.0271 92.1758 65.8119 92.1641 63.5155C92.3875 63.4923 92.5991 63.4575 92.8108 63.4691C94.5745 63.5271 96.3382 63.5851 98.0902 63.6547C99.1484 63.7011 100.207 63.7706 101.265 63.8286C102.135 63.875 103.005 63.933 103.946 63.9794C103.981 64.2114 104.04 64.3969 104.028 64.5941C104.028 66.2758 104.005 67.9575 103.981 69.6392C103.981 69.8248 103.934 69.9987 103.899 70.2423C103.699 70.2423 103.534 70.2191 103.37 70.2191C101.759 70.2191 100.148 70.2075 98.537 70.2191C97.3612 70.2423 96.1854 70.3235 95.0213 70.3583C94.1747 70.3815 93.3164 70.3699 92.4698 70.3699C92.3992 70.3699 92.3287 70.3235 92.1876 70.2771L92.1993 70.2887Z" fill="white"/>
<path d="M89.4475 59.4453C89.2947 59.4685 89.1536 59.5149 89.0007 59.5033C85.097 59.3525 81.2168 59.7816 77.3366 59.8512C77.2308 59.1785 77.1837 53.8551 77.3013 53.4724C78.6065 53.3216 79.9469 53.4376 81.2874 53.3332C82.6278 53.2404 83.9682 53.1708 85.3204 53.1012C86.6609 53.0316 88.0013 52.962 89.3652 52.8809C89.4005 55.0613 89.424 57.2069 89.4593 59.4337L89.4475 59.4453Z" fill="white"/>
<path d="M92.0336 59.4228C91.9513 57.2076 92.21 55.0388 92.257 52.8584C92.3981 52.8004 92.4804 52.7424 92.5627 52.7308C93.1507 52.6844 93.7386 52.638 94.3265 52.6148C95.5023 52.58 96.6781 52.5568 97.8422 52.5336C98.1596 52.5336 98.4889 52.5568 98.8063 52.5568C99.5471 52.5568 100.288 52.522 101.017 52.5336C101.605 52.5336 102.193 52.5684 102.769 52.6496C103.286 52.7192 103.451 52.9511 103.557 53.4615C103.745 54.4241 103.757 55.3983 103.78 56.3725C103.804 57.2308 103.862 58.089 103.898 58.9473C103.898 59.0401 103.898 59.1328 103.898 59.2836C103.404 59.2604 102.945 59.2372 102.475 59.2256C101.04 59.1792 99.5941 59.1212 98.1596 59.1212C97.2308 59.1212 96.3019 59.214 95.3847 59.272C94.35 59.3416 93.3035 59.4112 92.2688 59.4808C92.21 59.4808 92.163 59.4576 92.0336 59.4228Z" fill="white"/>
<path d="M83.2397 20.4305C83.2397 20.6045 83.2162 20.8712 83.2162 21.1264C83.2162 22.1354 83.2514 23.1444 83.2044 24.1535C83.1574 24.8957 82.9927 25.638 82.8752 26.3687C82.8516 26.5078 82.7929 26.6586 82.7223 26.7862C82.593 27.0182 82.3696 27.1341 82.0991 27.0877C81.8287 27.0529 81.6406 26.8906 81.5935 26.6238C81.5582 26.4383 81.5465 26.2411 81.5935 26.0671C81.9463 24.7102 81.9698 23.33 81.9463 21.9383C81.9345 21.3352 81.9815 20.7437 82.0286 20.1406C82.0521 19.8158 82.2755 19.6071 82.5695 19.5839C82.8752 19.5607 83.1221 19.7578 83.2044 20.1058C83.2162 20.1754 83.2279 20.2566 83.2514 20.4189L83.2397 20.4305Z" fill="#3D1C16"/>
<path d="M63.9433 20.3833C63.9433 20.6385 63.9315 20.882 63.9433 21.1256C63.9785 21.9259 64.0726 22.7377 64.0608 23.538C64.0608 24.431 63.9668 25.3241 63.8845 26.2171C63.8374 26.6578 63.5317 26.9014 63.179 26.8666C62.8262 26.8318 62.5676 26.5302 62.6028 26.0895C62.6381 25.5328 62.7674 24.9761 62.7792 24.4194C62.7792 23.4684 62.7322 22.5174 62.7087 21.5547C62.7087 21.1952 62.7087 20.8473 62.7087 20.4877C62.7087 20.3717 62.7322 20.2674 62.7557 20.1514C62.8145 19.9078 62.9673 19.757 63.2143 19.7107C63.4965 19.6643 63.6963 19.7918 63.8374 20.0122C63.908 20.1166 63.9315 20.2558 63.9668 20.3717L63.9433 20.3833Z" fill="#3D1C16"/>
<path d="M95.9608 19.7693C95.9373 21.5321 96.0902 23.3762 95.6198 25.1739C95.5728 25.3479 95.514 25.5334 95.42 25.6958C95.2553 25.9742 94.9731 26.0785 94.6909 25.9973C94.397 25.9162 94.2441 25.6958 94.2441 25.3595C94.2441 25.2435 94.2677 25.1391 94.3029 25.0231C94.7027 23.6546 94.6909 22.2512 94.7145 20.8479C94.7145 20.3839 94.7027 19.9084 94.738 19.4445C94.7615 19.1314 94.9614 18.9574 95.2436 18.9226C95.5375 18.8878 95.7845 19.0502 95.8903 19.3633C95.9256 19.4677 95.9373 19.5837 95.9726 19.7577L95.9608 19.7693Z" fill="#3D1C16"/>
<path d="M38.6875 22.4126C38.9462 23.8856 38.8756 25.3585 38.8168 26.8431C38.8168 26.9938 38.7933 27.1446 38.7463 27.2838C38.6404 27.5853 38.3935 27.7477 38.0996 27.7245C37.8056 27.7013 37.5705 27.5157 37.5352 27.191C37.4999 26.8431 37.4999 26.4835 37.5352 26.124C37.6528 24.6394 37.5705 23.1665 37.3235 21.7052C37.2883 21.5196 37.2647 21.334 37.2765 21.1485C37.2883 20.8817 37.4411 20.6961 37.7233 20.6382C38.0055 20.5686 38.2407 20.673 38.3818 20.9397C38.4523 21.0905 38.5111 21.2528 38.5346 21.4152C38.5934 21.7516 38.6404 22.0763 38.6875 22.4126Z" fill="#3D1C16"/>
<path d="M88.8835 20.5348C88.8835 22.0541 88.86 23.5735 88.8482 25.0928C88.8482 25.3016 88.8129 25.5103 88.7659 25.7075C88.6836 26.0438 88.4602 26.2178 88.178 26.2178C87.8723 26.2178 87.6254 26.009 87.5548 25.6611C87.5195 25.4987 87.5195 25.3248 87.5195 25.1624C87.6254 23.4343 87.6841 21.7178 87.543 19.9897C87.5313 19.8505 87.543 19.6882 87.6018 19.549C87.6841 19.317 87.8723 19.1895 88.131 19.1895C88.3896 19.1895 88.5895 19.3054 88.6601 19.549C88.7541 19.8737 88.8012 20.2101 88.86 20.5348C88.8717 20.5348 88.8835 20.5348 88.8952 20.5348H88.8835Z" fill="#3D1C16"/>
<path d="M70.9872 20.3252C70.9872 21.0559 70.9636 21.7865 70.9519 22.5172C70.9401 23.4334 70.9166 24.3497 70.8931 25.2775C70.8931 25.4863 70.8931 25.695 70.8578 25.8922C70.799 26.2517 70.5756 26.4489 70.2581 26.4605C69.9524 26.4721 69.6938 26.2749 69.6114 25.9386C69.5762 25.7762 69.5762 25.6022 69.5762 25.4399C69.6232 24.0017 69.682 22.552 69.729 21.1138C69.729 20.8587 69.7055 20.5919 69.682 20.3252C69.635 19.8381 69.7878 19.5597 70.1523 19.5017C70.5051 19.4553 70.8225 19.6989 70.9284 20.1048C70.9519 20.1744 70.9519 20.2556 70.9636 20.3252C70.9636 20.3252 70.9872 20.3252 70.9989 20.3252H70.9872Z" fill="#3D1C16"/>
<path d="M32.6551 22.7615C32.9138 24.1533 32.855 25.5566 32.7727 26.96C32.7727 27.1455 32.7139 27.3311 32.6316 27.4935C32.5023 27.7834 32.2201 27.911 31.9379 27.8646C31.6792 27.8182 31.4911 27.6094 31.4558 27.3079C31.444 27.2035 31.4558 27.0875 31.4558 26.9716C31.5969 25.1855 31.5734 23.411 31.2677 21.6481C31.2559 21.5785 31.2441 21.4973 31.2441 21.4277C31.2441 21.0914 31.4088 20.871 31.7027 20.8131C31.9967 20.7551 32.2671 20.9058 32.3847 21.1958C32.4435 21.335 32.467 21.4857 32.4905 21.6365C32.5493 22.0076 32.6081 22.3788 32.6551 22.7499V22.7615Z" fill="#3D1C16"/>
<path d="M76.7605 20.36C76.9839 22.0301 76.9603 23.6886 76.6782 25.3355C76.6546 25.4979 76.6311 25.6718 76.5841 25.8342C76.4783 26.1358 76.2196 26.3097 75.9374 26.2865C75.6552 26.2633 75.42 26.0546 75.3612 25.7414C75.3377 25.6139 75.3495 25.4863 75.3612 25.3471C75.3847 25.1383 75.4083 24.9412 75.4435 24.7324C75.6905 23.3755 75.6787 22.0185 75.5141 20.6499C75.4906 20.4412 75.4671 20.244 75.4671 20.0352C75.4671 19.6757 75.6317 19.4785 75.9374 19.4322C76.2196 19.3858 76.5135 19.5365 76.6311 19.8033C76.7017 19.9773 76.7252 20.1628 76.7605 20.3484V20.36Z" fill="#3D1C16"/>
<path d="M58.2414 20.4877C58.2885 22.0186 58.3473 23.5611 58.3825 25.0921C58.3825 25.3008 58.3825 25.5096 58.3355 25.7068C58.2767 26.0199 58.0415 26.2055 57.7358 26.2171C57.4419 26.2287 57.195 26.0547 57.1009 25.7531C57.0539 25.5908 57.0421 25.4168 57.0539 25.2544C57.1832 23.6539 57.0186 22.065 56.9245 20.4761C56.9245 20.2905 56.901 20.0934 56.9245 19.9194C56.9715 19.6526 57.1597 19.4903 57.4301 19.4439C57.6888 19.3975 57.971 19.5483 58.0651 19.815C58.1356 20.0238 58.1591 20.2557 58.2062 20.4761C58.2179 20.4761 58.2297 20.4761 58.2532 20.4761L58.2414 20.4877Z" fill="#3D1C16"/>
<path d="M101.734 19.6987C101.875 21.4848 101.816 23.1665 101.428 24.825C101.381 25.0222 101.311 25.231 101.205 25.3933C101.052 25.6369 100.77 25.7297 100.511 25.6485C100.253 25.5673 100.088 25.3817 100.076 25.115C100.076 24.9526 100.088 24.7786 100.123 24.6163C100.476 23.1433 100.617 21.6588 100.511 20.1511C100.499 19.9423 100.511 19.7335 100.511 19.5364C100.546 19.1768 100.758 18.9449 101.064 18.9217C101.37 18.8985 101.605 19.1072 101.687 19.4552C101.711 19.5596 101.722 19.6755 101.722 19.6871L101.734 19.6987Z" fill="#3D1C16"/>
<path d="M106.732 20.0132C106.873 21.7993 106.814 23.481 106.426 25.1395C106.379 25.3366 106.309 25.5454 106.203 25.7078C106.05 25.9513 105.768 26.0441 105.509 25.9629C105.251 25.8817 105.086 25.6962 105.074 25.4294C105.074 25.2671 105.086 25.0931 105.121 24.9307C105.474 23.4578 105.615 21.9732 105.509 20.4655C105.498 20.2567 105.509 20.048 105.509 19.8508C105.545 19.4913 105.756 19.2593 106.062 19.2361C106.368 19.2129 106.603 19.4217 106.685 19.7696C106.709 19.874 106.72 19.99 106.72 20.0016L106.732 20.0132Z" fill="#3D1C16"/>
<path d="M45.5891 21.9384C45.7067 23.2838 45.8243 24.6291 45.9183 25.9745C45.9301 26.218 45.8713 26.508 45.742 26.7167C45.4833 27.1227 44.9306 27.0531 44.7425 26.6124C44.672 26.4616 44.6602 26.2876 44.6367 26.1252C44.4956 24.4088 44.3545 22.6923 44.2251 20.9758C44.1899 20.5698 44.3662 20.3147 44.6955 20.2567C45.0129 20.2103 45.3069 20.4075 45.3892 20.7786C45.4715 21.1613 45.5068 21.5557 45.5656 21.95C45.5656 21.95 45.5656 21.95 45.5773 21.95L45.5891 21.9384Z" fill="#3D1C16"/>
<path d="M51.6334 20.7327C51.7157 22.3564 51.7863 23.9338 51.8568 25.5111C51.8568 25.5691 51.8568 25.6271 51.8568 25.685C51.798 26.1374 51.5629 26.3809 51.1866 26.3809C50.8221 26.3809 50.5869 26.1142 50.5634 25.6502C50.5281 24.7456 50.5164 23.8526 50.4693 22.9479C50.4341 22.1477 50.3635 21.3358 50.3047 20.5356C50.3047 20.4776 50.293 20.4196 50.293 20.3616C50.293 20.0716 50.4341 19.8861 50.681 19.8049C50.9514 19.7121 51.2454 19.8049 51.3747 20.0484C51.4923 20.2804 51.5629 20.5356 51.6334 20.7443V20.7327Z" fill="#3D1C16"/>
</g>
<defs>
<clipPath id="clip0_853_5697">
<rect width="85" height="72" fill="white" transform="translate(26 18.9219)"/>
</clipPath>
</defs>
</svg>
