<svg width="24" height="24" viewBox="0 0 25 25" fill="none" xmlns="http://www.w3.org/2000/svg">
<g clip-path="url(#clip0_272_7844)">
<path d="M12.2049 23.7823C12.632 23.7725 13.0419 23.6119 13.3621 23.329C13.6822 23.046 13.892 22.659 13.9543 22.2363H10.3877C10.4518 22.6705 10.6713 23.0666 11.0056 23.351C11.3399 23.6354 11.7661 23.7886 12.2049 23.7823Z" fill="white"/>
<path d="M22.044 19.409C21.3901 18.8261 20.8177 18.1579 20.3421 17.4223C19.8228 16.407 19.5116 15.2981 19.4267 14.1609V10.8112C19.4239 10.4044 19.3877 9.99842 19.3182 9.59751C18.7845 9.49083 18.2716 9.29849 17.7993 9.02794C17.9794 9.60758 18.0708 10.2111 18.0706 10.818V14.1676C18.1537 15.555 18.5353 16.908 19.1894 18.1343C19.6575 18.8761 20.213 19.559 20.8438 20.1685H3.47872C4.1096 19.559 4.66506 18.8761 5.13319 18.1343C5.78726 16.908 6.16888 15.555 6.25199 14.1676V10.8112C6.24842 10.0265 6.39968 9.24879 6.6971 8.5226C6.99452 7.79641 7.43226 7.13602 7.98526 6.57924C8.53826 6.02246 9.19565 5.58023 9.9198 5.27787C10.6439 4.97551 11.4206 4.81896 12.2054 4.81719C13.3538 4.81811 14.4765 5.15775 15.4329 5.7936C15.3275 5.40641 15.2683 5.0081 15.2566 4.60699V4.17981C14.5486 3.83153 13.788 3.60244 13.0055 3.50175V2.6474C13.0055 2.40732 12.9101 2.17708 12.7403 2.00732C12.5706 1.83756 12.3403 1.74219 12.1003 1.74219C11.8602 1.74219 11.6299 1.83756 11.4602 2.00732C11.2904 2.17708 11.195 2.40732 11.195 2.6474V3.53566C9.44275 3.78284 7.83904 4.65564 6.67999 5.9929C5.52095 7.33016 4.88484 9.0416 4.88909 10.8112V14.1609C4.80416 15.2981 4.49295 16.407 3.97371 17.4223C3.50644 18.1562 2.94319 18.8244 2.2989 19.409C2.22657 19.4726 2.1686 19.5508 2.12885 19.6385C2.0891 19.7262 2.06848 19.8213 2.06836 19.9176V20.8397C2.06836 21.0196 2.1398 21.192 2.26696 21.3192C2.39412 21.4464 2.56659 21.5178 2.74642 21.5178H21.5965C21.7763 21.5178 21.9488 21.4464 22.0759 21.3192C22.2031 21.192 22.2745 21.0196 22.2745 20.8397V19.9176C22.2744 19.8213 22.2538 19.7262 22.2141 19.6385C22.1743 19.5508 22.1163 19.4726 22.044 19.409Z" fill="white"/>
<path d="M20.3415 7.9974C22.2139 7.9974 23.7318 6.47951 23.7318 4.6071C23.7318 2.73469 22.2139 1.2168 20.3415 1.2168C18.4691 1.2168 16.9512 2.73469 16.9512 4.6071C16.9512 6.47951 18.4691 7.9974 20.3415 7.9974Z" fill="white"/>
</g>
<defs>
<clipPath id="clip0_272_7844">
<rect width="24.4102" height="24.4102" fill="white" transform="translate(0 0.539062)"/>
</clipPath>
</defs>
</svg>
