<svg width="139" height="110" viewBox="0 0 139 110" fill="none" xmlns="http://www.w3.org/2000/svg">
<path d="M135.255 71.8037C142.144 53.0198 136.848 29.9418 121.114 17.0946C116.194 13.0703 110.57 9.97292 104.724 7.49734C98.0582 4.66979 91.0757 2.59312 83.9527 1.33773C70.0932 -1.10264 55.6362 -0.304829 42.3859 4.5642C27.4017 10.0785 14.5966 21.1658 7.01668 35.2449C-9.3968 65.7614 4.94302 100.021 38.8478 107.541C68.0078 114.018 111.414 108.421 129.901 82.0931C132.15 78.8901 133.931 75.429 135.255 71.8037Z" fill="#E5F2F2"/>
<g clip-path="url(#clip0_853_5693)">
<path d="M58.987 86.8807L66.577 73.8607C66.577 73.8607 95.227 59.7207 99.097 57.4907C102.967 55.2607 103.567 52.8007 102.227 50.4207C102.227 50.4207 104.457 49.1407 104.307 46.3207C104.157 43.5007 101.177 42.5307 99.767 42.3807C99.767 42.3807 100.287 39.7007 98.357 38.4407C96.427 37.1707 94.037 37.1707 92.257 37.3207C90.467 37.4707 75.517 39.1807 75.517 39.1807C75.517 39.1807 76.487 37.4707 75.367 35.6107C74.237 33.7407 71.187 33.8907 69.927 34.0407C68.657 34.1907 52.137 38.2807 49.457 39.4007C46.777 40.5207 39.117 45.2807 42.237 56.9607L34.127 71.0307C34.127 71.0307 42.567 85.9707 58.987 86.8807Z" fill="#6588FC"/>
<path d="M56.9975 68.9212C58.2875 70.0412 59.7875 70.7112 61.4775 70.9312C61.9075 70.9912 61.8975 70.3212 61.4775 70.2612C59.9775 70.0612 58.6175 69.4412 57.4775 68.4512C57.1575 68.1712 56.6775 68.6412 57.0075 68.9212H56.9975Z" fill="#394075"/>
<path d="M59.3468 42.5203C64.6568 41.5203 69.9768 40.5103 75.2868 39.5103C75.7068 39.4303 75.5268 38.7803 75.1068 38.8603C69.7968 39.8603 64.4768 40.8703 59.1668 41.8703C58.7468 41.9503 58.9268 42.6003 59.3468 42.5203Z" fill="#394075"/>
<path d="M57.9563 59.9705C61.9263 56.5205 63.6663 51.1405 62.5263 46.0105C62.4363 45.5905 61.7863 45.7705 61.8763 46.1905C62.9763 51.1005 61.2663 56.2005 57.4763 59.5005C57.1463 59.7805 57.6263 60.2605 57.9463 59.9705H57.9563Z" fill="#394075"/>
<path d="M81.447 46.591C84.287 45.621 87.167 44.791 90.097 44.131C93.077 43.461 96.637 42.401 99.677 42.861C100.097 42.921 100.277 42.281 99.857 42.211C97.007 41.781 93.857 42.651 91.077 43.231C87.747 43.921 84.487 44.841 81.267 45.941C80.857 46.081 81.037 46.731 81.447 46.591Z" fill="#394075"/>
<path d="M87.0176 52.5809C89.2876 51.6509 91.6076 50.8609 93.9776 50.2309C96.4076 49.5809 100.098 48.2409 101.988 50.5509C102.258 50.8809 102.728 50.4109 102.458 50.0809C100.848 48.1009 98.2776 48.5609 96.0676 49.0409C92.9076 49.7209 89.8276 50.7209 86.8376 51.9409C86.4476 52.1009 86.6176 52.7509 87.0176 52.5909V52.5809Z" fill="#394075"/>
<path d="M77.0475 44.2515C81.3275 46.0915 84.7875 49.2315 87.0275 53.3115C87.2375 53.6915 87.8175 53.3515 87.6075 52.9715C85.3175 48.7915 81.7575 45.5515 77.3875 43.6715C76.9975 43.5015 76.6575 44.0815 77.0475 44.2515Z" fill="#394075"/>
<path d="M62.0373 53.9113C64.8573 53.7213 67.9173 53.6013 70.0273 55.8113C70.3273 56.1213 70.7973 55.6513 70.4973 55.3413C68.2573 52.9913 65.0573 53.0413 62.0373 53.2413C61.6073 53.2713 61.6073 53.9413 62.0373 53.9113Z" fill="#394075"/>
</g>
<defs>
<clipPath id="clip0_853_5693">
<rect width="70.18" height="52.92" fill="white" transform="translate(34.127 33.9609)"/>
</clipPath>
</defs>
</svg>
