<svg width="138" height="111" viewBox="0 0 138 111" fill="none" xmlns="http://www.w3.org/2000/svg">
<path d="M135.038 71.8818C141.927 53.0979 136.632 30.0199 120.898 17.1727C115.977 13.1484 110.354 10.051 104.508 7.57547C97.8414 4.74791 90.8589 2.67125 83.7359 1.41586C69.8764 -1.02452 55.4194 -0.226704 42.1691 4.64232C27.1849 10.1566 14.3798 21.2439 6.79988 35.323C-9.6136 65.8395 4.72623 100.099 38.631 107.619C67.791 114.096 111.197 108.499 129.684 82.1713C131.934 78.9683 133.714 75.5071 135.038 71.8818Z" fill="#E5F2F2"/>
<g clip-path="url(#clip0_853_5696)">
<path d="M36.1016 56.2526C36.1016 56.2526 40.9416 45.0526 49.9216 39.1926C58.2416 33.7626 71.1416 31.6426 83.0616 44.5426C94.9716 57.4426 67.4116 66.9626 59.5816 64.0026C51.7516 61.0426 36.1016 56.2426 36.1016 56.2426V56.2526Z" fill="#ED9C4B"/>
<path d="M102.708 32.9597L61.0062 51.6049C60.2046 51.9633 59.8453 52.9038 60.2037 53.7054L69.7386 75.0309C70.097 75.8325 71.0374 76.1919 71.8391 75.8334L113.541 57.1882C114.342 56.8297 114.702 55.8893 114.343 55.0877L104.808 33.7622C104.45 32.9605 103.509 32.6012 102.708 32.9597Z" fill="#819C5A"/>
<path d="M72.082 73.6537C71.472 73.6537 70.892 73.3037 70.632 72.7137L62.532 54.5937C62.362 54.2037 62.352 53.7737 62.502 53.3837C62.652 52.9837 62.952 52.6737 63.332 52.5037L101.822 35.2937C102.212 35.1237 102.642 35.1137 103.032 35.2637C103.432 35.4137 103.742 35.7137 103.912 36.0937L112.012 54.2137C112.182 54.6037 112.192 55.0337 112.042 55.4237C111.892 55.8237 111.592 56.1337 111.212 56.3037L72.722 73.5137C72.512 73.6037 72.292 73.6537 72.072 73.6537H72.082ZM71.212 72.4537C71.422 72.9337 71.992 73.1437 72.472 72.9337L110.962 55.7237C111.192 55.6237 111.372 55.4337 111.462 55.1937C111.552 54.9537 111.542 54.6937 111.442 54.4637L103.342 36.3437C103.242 36.1137 103.052 35.9337 102.812 35.8437C102.572 35.7537 102.312 35.7637 102.082 35.8637L63.592 53.0737C63.362 53.1737 63.182 53.3637 63.092 53.6037C63.002 53.8437 63.012 54.1037 63.112 54.3337L71.212 72.4537Z" fill="#394075"/>
<path d="M73.1712 70.5839C72.9412 70.5839 72.7012 70.5439 72.4812 70.4539C72.0012 70.2739 71.6112 69.9039 71.4012 69.4339C70.9612 68.4539 71.4012 67.3139 72.3812 66.8739C73.3612 66.4339 74.5112 66.8739 74.9412 67.8539C75.3812 68.8339 74.9412 69.9839 73.9612 70.4139C73.7112 70.5239 73.4412 70.5839 73.1712 70.5839ZM73.1712 67.3439C72.9912 67.3439 72.8112 67.3839 72.6412 67.4539C71.9812 67.7439 71.6912 68.5239 71.9812 69.1739C72.1212 69.4939 72.3812 69.7339 72.7012 69.8639C73.0312 69.9839 73.3812 69.9739 73.7012 69.8339C74.3612 69.5439 74.6512 68.7639 74.3612 68.1139C74.1412 67.6339 73.6712 67.3439 73.1712 67.3439Z" fill="white"/>
<path d="M77.7923 68.5136C77.0523 68.5136 76.3423 68.0836 76.0223 67.3636C75.5823 66.3836 76.0223 65.2436 77.0023 64.8036C77.9723 64.3636 79.1223 64.8036 79.5623 65.7836C79.7723 66.2536 79.7923 66.7836 79.6023 67.2636C79.4223 67.7436 79.0523 68.1336 78.5823 68.3436C78.3223 68.4536 78.0623 68.5136 77.7923 68.5136ZM77.7923 65.2736C77.6123 65.2736 77.4323 65.3136 77.2623 65.3836C76.9423 65.5236 76.7023 65.7836 76.5723 66.1136C76.4523 66.4436 76.4623 66.7936 76.6023 67.1136C76.8923 67.7736 77.6723 68.0636 78.3223 67.7736C78.6423 67.6336 78.8823 67.3736 79.0123 67.0536C79.1323 66.7236 79.1223 66.3736 78.9823 66.0536C78.7623 65.5736 78.2923 65.2836 77.7923 65.2836V65.2736Z" fill="white"/>
<path d="M96.3315 43.7734C95.5915 43.7734 94.8815 43.3434 94.5615 42.6234C94.3515 42.1534 94.3315 41.6234 94.5215 41.1434C94.7015 40.6634 95.0715 40.2734 95.5415 40.0634C96.0115 39.8534 96.5415 39.8334 97.0215 40.0234C97.5015 40.2034 97.8915 40.5734 98.1015 41.0434C98.5415 42.0234 98.1015 43.1634 97.1215 43.6034C96.8615 43.7134 96.6015 43.7734 96.3315 43.7734ZM96.3315 40.5334C96.1515 40.5334 95.9715 40.5734 95.8015 40.6434C95.4815 40.7834 95.2415 41.0434 95.1115 41.3734C94.9915 41.7034 95.0015 42.0534 95.1415 42.3734C95.4315 43.0334 96.2115 43.3234 96.8615 43.0334C97.1815 42.8934 97.4215 42.6334 97.5515 42.3034C97.6715 41.9734 97.6615 41.6234 97.5215 41.3034C97.3815 40.9834 97.1215 40.7434 96.7915 40.6134C96.6415 40.5534 96.4815 40.5234 96.3215 40.5234L96.3315 40.5334Z" fill="white"/>
<path d="M87.2818 62.5935C84.1418 62.5935 81.1518 60.7835 79.7918 57.7435C77.9518 53.6135 79.8018 48.7635 83.9318 46.9135C85.9318 46.0235 88.1618 45.9535 90.2018 46.7435C92.2518 47.5235 93.8618 49.0535 94.7618 51.0535C96.6018 55.1835 94.7518 60.0335 90.6218 61.8835C89.5418 62.3635 88.4018 62.5935 87.2918 62.5935H87.2818ZM87.2718 46.8335C86.2218 46.8335 85.1718 47.0535 84.1918 47.4935C80.3818 49.1935 78.6718 53.6735 80.3718 57.4835C82.0718 61.2935 86.5518 63.0035 90.3618 61.3035C94.1718 59.6035 95.8818 55.1235 94.1818 51.3135C93.3618 49.4735 91.8618 48.0535 89.9818 47.3335C89.1018 47.0035 88.1918 46.8335 87.2818 46.8335H87.2718Z" fill="white"/>
<path d="M105.165 47.5165L95.3123 34.231C93.6674 32.0129 90.5359 31.5483 88.3178 33.1932L57.1042 56.3407C54.8861 57.9856 54.4214 61.1171 56.0663 63.3352L65.9186 76.6206C67.5635 78.8387 70.695 79.3034 72.9131 77.6585L104.127 54.511C106.345 52.8661 106.809 49.7346 105.165 47.5165Z" fill="#819C5A"/>
<path d="M69.5996 77.5326C69.1096 77.5326 68.6296 77.3126 68.3196 76.8926L56.4996 60.9526C56.2496 60.6126 56.1396 60.1926 56.1996 59.7726C56.2596 59.3526 56.4796 58.9826 56.8196 58.7326L90.6996 33.6226C91.3997 33.1026 92.3996 33.2526 92.9196 33.9526L104.74 49.8926C105.26 50.5926 105.11 51.5926 104.41 52.1126L70.5496 77.2326C70.2696 77.4426 69.9396 77.5426 69.6096 77.5426L69.5996 77.5326ZM68.8296 76.5126C69.1396 76.9326 69.7396 77.0226 70.1596 76.7126L104.02 51.5926C104.44 51.2826 104.53 50.6826 104.22 50.2626L92.3996 34.3226C92.0896 33.9026 91.4896 33.8126 91.0696 34.1226L57.2096 59.2426C57.0096 59.3926 56.8696 59.6126 56.8396 59.8626C56.7996 60.1126 56.8696 60.3626 57.0196 60.5726L68.8396 76.5126H68.8296Z" fill="#394075"/>
<path d="M80.6289 63.6139C78.1189 63.6139 75.6389 62.4639 74.0389 60.3039C71.3489 56.6739 72.1089 51.5339 75.7389 48.8339C79.3689 46.1439 84.5089 46.9039 87.2089 50.5339C89.8989 54.1639 89.1389 59.3039 85.5089 62.0038C84.0489 63.0939 82.3289 63.6139 80.6389 63.6139H80.6289ZM80.6089 47.8639C79.0389 47.8639 77.4689 48.3439 76.1189 49.3539C72.7689 51.8339 72.0689 56.5839 74.5489 59.9339C77.0289 63.2838 81.7789 63.9839 85.1289 61.5038C88.4789 59.0238 89.1789 54.2739 86.6989 50.9239C85.2189 48.9239 82.9289 47.8739 80.6189 47.8739L80.6089 47.8639Z" fill="#394075"/>
<path d="M24.4707 61.4627C24.4707 61.4627 27.0107 76.8327 36.3107 82.8227L48.4407 76.3327C48.4407 76.3327 56.2707 76.7027 61.4107 71.4827C66.5607 66.2627 68.0407 59.9027 68.0407 59.9027C68.0407 59.9027 81.3607 58.7727 84.0407 57.2227C86.7207 55.6727 86.6507 51.6527 83.0507 50.8027C79.4507 49.9527 55.1707 45.7227 55.1707 45.7227L24.4707 61.4627Z" fill="#ED9C4B"/>
<path d="M58.0211 46.4325C61.4311 46.9225 64.8211 47.4825 68.2011 48.1125C68.6011 48.1825 68.7711 47.5725 68.3711 47.5025C64.9911 46.8725 61.6011 46.3125 58.1911 45.8225C57.7911 45.7625 57.6211 46.3725 58.0211 46.4325Z" fill="#394075"/>
<path d="M68.5906 47.894C69.2306 46.274 69.6606 44.614 69.9706 42.904C70.0406 42.504 69.4306 42.334 69.3606 42.734C69.0406 44.444 68.6106 46.104 67.9806 47.724C67.8306 48.104 68.4406 48.274 68.5906 47.894Z" fill="#394075"/>
<path d="M44.4903 74.0339C45.3103 75.3739 46.6403 76.2139 48.2003 76.4139C48.6003 76.4639 48.6003 75.8339 48.2003 75.7839C46.8803 75.6139 45.7303 74.8539 45.0403 73.7139C44.8303 73.3639 44.2803 73.6839 44.4903 74.0339Z" fill="#394075"/>
<path d="M84.9602 52.084C82.4102 52.644 77.8102 52.414 76.4802 49.674C76.3002 49.304 75.7502 49.624 75.9302 49.994C77.3902 53.004 82.3102 53.324 85.1302 52.704C85.5302 52.614 85.3602 52.004 84.9602 52.094V52.084Z" fill="#394075"/>
</g>
<defs>
<clipPath id="clip0_853_5696">
<rect width="90.01" height="50.63" fill="white" transform="translate(24.4707 32.2031)"/>
</clipPath>
</defs>
</svg>
