<svg width="27" height="27" viewBox="0 0 28 29" fill="none" xmlns="http://www.w3.org/2000/svg">
<path d="M22.0266 17.6455L22.3476 16.4473L24.2039 15.5344C24.5466 15.3644 24.8181 15.0787 24.9705 14.7278C25.1229 14.377 25.1463 13.9835 25.0367 13.617L24.0278 9.98905C23.9542 9.71437 23.8096 9.46387 23.6086 9.26268C23.4077 9.06149 23.1573 8.9167 22.8827 8.84281C22.7128 8.7959 22.5364 8.77699 22.3605 8.78683L20.2853 8.91909C20.0152 8.61271 19.725 8.32464 19.4167 8.0568L19.5461 5.97614C19.5711 5.59638 19.4617 5.21992 19.2371 4.91267C19.0125 4.60541 18.687 4.38694 18.3176 4.2955L14.6523 3.31339C14.2866 3.20786 13.8955 3.2343 13.5473 3.38809C13.1992 3.54189 12.9163 3.81322 12.748 4.15461L11.8198 6.02121C11.4163 6.09827 11.0184 6.20196 10.6286 6.33159L8.94506 5.1586C8.79302 5.07222 8.628 5.01099 8.45641 4.9773C8.18165 4.90398 7.89244 4.90421 7.6178 4.97795C7.34315 5.05169 7.09273 5.19636 6.89165 5.39744L4.20391 8.03493C3.93696 8.3 3.77046 8.64963 3.73295 9.02395C3.69544 9.39828 3.78924 9.774 3.99828 10.0868L5.11546 11.8383L4.79438 13.0366L2.9616 13.9557C2.61602 14.1216 2.34039 14.4047 2.18364 14.7545C2.0269 15.1044 1.99917 15.4984 2.10537 15.8668L3.11427 19.4948C3.18787 19.7695 3.33241 20.02 3.53339 20.2212C3.73437 20.4223 3.98472 20.5671 4.25933 20.641C4.42921 20.6879 4.60559 20.7069 4.78155 20.697L6.85678 20.5647C7.12685 20.8711 7.41702 21.1592 7.72536 21.427L7.59595 23.5077C7.57096 23.8875 7.68033 24.2639 7.90492 24.5712C8.12952 24.8784 8.45502 25.0969 8.82446 25.1883L12.5211 26.1788C12.8868 26.2844 13.2779 26.2579 13.626 26.1041C13.9742 25.9503 14.2571 25.679 14.4253 25.3376L15.3536 23.471C15.7571 23.394 16.155 23.2903 16.5448 23.1606L18.268 24.3107C18.4155 24.4072 18.5777 24.479 18.7483 24.5233C19.023 24.5966 19.3122 24.5964 19.5869 24.5227C19.8615 24.4489 20.112 24.3043 20.313 24.1032L22.9381 21.4489C23.2051 21.1838 23.3716 20.8342 23.4091 20.4599C23.4466 20.0856 23.3528 19.7098 23.1437 19.3971L22.0266 17.6455ZM19.1053 22.9402L16.6624 21.3119C15.8909 21.676 15.0606 21.8998 14.2105 21.9728L12.9011 24.6354L9.20445 23.6449L9.39337 20.7156C8.70192 20.2211 8.09848 19.6139 7.60824 18.9194L4.67904 19.0747L3.67014 15.4467L6.30405 14.1378C6.37647 13.2883 6.59885 12.4583 6.96089 11.6864L5.34897 9.18116L8.0367 6.54367L10.4796 8.17197C11.2512 7.80782 12.0814 7.58402 12.9315 7.51107L14.2409 4.84843L17.9376 5.83894L17.7487 8.76825C18.4401 9.26278 19.0436 9.86997 19.5338 10.5645L22.463 10.4092L23.4719 14.0372L20.838 15.346C20.7656 16.1955 20.5432 17.0255 20.1811 17.7974L21.7931 20.3027L19.1053 22.9402Z" fill="white"/>
<path d="M12.3117 19.4406C11.3823 19.1915 10.5477 18.6725 9.91324 17.9491C9.27883 17.2257 8.87318 16.3304 8.74759 15.3764C8.622 14.4225 8.78211 13.4527 9.20767 12.5898C9.63323 11.7268 10.3051 11.0094 11.1384 10.5283C11.9717 10.0472 12.9289 9.82405 13.889 9.88698C14.8492 9.94991 15.7691 10.2961 16.5324 10.8819C17.2958 11.4676 17.8683 12.2666 18.1776 13.1777C18.4868 14.0888 18.519 15.0712 18.27 16.0006C18.1104 16.6211 17.8287 17.2036 17.4412 17.7138C17.0538 18.2241 16.5684 18.652 16.0135 18.9723C15.4587 19.2927 14.8455 19.4991 14.2098 19.5795C13.5742 19.6599 12.9289 19.6127 12.3117 19.4406ZM14.4103 11.6087C13.9988 11.4881 13.5672 11.4522 13.1415 11.5033C12.7158 11.5543 12.3048 11.6911 11.9335 11.9055C11.5622 12.1199 11.2382 12.4073 10.9812 12.7505C10.7242 13.0937 10.5394 13.4854 10.4381 13.902C10.3175 14.3135 10.2817 14.7451 10.3327 15.1708C10.3837 15.5965 10.5205 16.0075 10.7349 16.3788C10.9493 16.7501 11.2367 17.0741 11.5799 17.3311C11.9231 17.5881 12.3148 17.7729 12.7314 17.8742C13.1429 17.9948 13.5745 18.0306 14.0002 17.9796C14.4259 17.9286 14.8369 17.7918 15.2082 17.5774C15.5795 17.363 15.9035 17.0756 16.1605 16.7324C16.4176 16.3892 16.6023 15.9975 16.7036 15.5809C16.8242 15.1694 16.8601 14.7378 16.809 14.3121C16.758 13.8864 16.6212 13.4754 16.4068 13.1041C16.1924 12.7328 15.905 12.4088 15.5618 12.1518C15.2186 11.8947 14.8269 11.71 14.4103 11.6087Z" fill="white"/>
</svg>
